<svg xmlns="http://www.w3.org/2000/svg" xmlns:xlink="http://www.w3.org/1999/xlink" width="139px" height="91px"
    viewBox="0 0 139 91">
    <g stroke="none" stroke-width="1" fill="none" fill-rule="evenodd">
        <g transform="translate(-889.000000, -4657.000000)" fill="#FFFFFF" fill-rule="nonzero">
            <g transform="translate(889.000000, 4657.000000)">
                <path
                    d="M136.963867,66 C130.959176,66 127.919637,67.1167827 124.980004,68.1967002 C122.270047,69.1923176 119.709949,70.133024 114.465686,70.133024 C109.22115,70.133024 106.661324,69.1925754 103.951096,68.1967002 C101.011734,67.1167827 97.9721953,66 91.9672324,66 C85.9660703,66 82.9284316,67.1170405 79.9906992,68.196958 C77.2826426,69.1925754 74.7247168,70.133024 69.4845254,70.133024 C64.2421621,70.133024 61.6834219,69.1925754 58.9745508,68.196958 C56.0360039,67.1167827 52.9975508,66 46.9947598,66 C40.9938691,66 37.9562305,67.1170405 35.018498,68.196958 C32.3104414,69.1925754 29.7527871,70.133024 24.5125957,70.133024 C19.2740332,70.133024 16.7169219,69.1925754 14.0096797,68.196958 C11.0727617,67.1167827 8.0359375,66 2.03613281,66 C0.911644531,66 0,66.865687 0,67.933488 C0,69.001289 0.911644531,69.866976 2.03613281,69.866976 C7.27469531,69.866976 9.83153516,70.8074246 12.5390488,71.803042 C15.4759668,72.8832173 18.512791,74 24.5125957,74 C30.5134863,74 33.551125,72.8829595 36.4888574,71.803042 C39.1969141,70.8074246 41.7545684,69.866976 46.9947598,69.866976 C52.2368516,69.866976 54.7955918,70.8074246 57.5044629,71.803042 C60.4430098,72.8832173 63.4817344,74 69.4845254,74 C75.4856875,74 78.5233262,72.8829595 81.4610586,71.803042 C84.1691152,70.8074246 86.727041,69.866976 91.9672324,69.866976 C97.2114961,69.866976 99.7715938,70.8074246 102.481551,71.8032998 C105.421184,72.8832173 108.460723,74 114.465686,74 C120.470648,74 123.509916,72.8832173 126.449549,71.8032998 C129.159506,70.8076824 131.719604,69.866976 136.963867,69.866976 C138.088355,69.866976 139,69.001289 139,67.933488 C139,66.865687 138.088355,66 136.963867,66 Z">
                </path>
                <path
                    d="M127.870109,77.40552 C127.48607,76.2747466 126.366686,75.7115541 125.37102,76.1474797 L125.018683,76.3019554 C123.854967,76.8130708 122.755688,77.2958072 121.447635,77.6814111 C120.414338,77.9862665 119.794206,79.1840378 120.062517,80.3569409 C120.288559,81.3449414 121.072875,82 121.932195,82 C122.093285,82 122.256695,81.9768872 122.419589,81.9289061 C123.943374,81.4795224 125.199104,80.9280327 126.413853,80.3943896 L126.76155,80.2419619 C127.757732,79.8060363 128.254148,78.5360008 127.870109,77.40552 Z">
                </path>
                <path
                    d="M113.039825,78.1104631 C108.701651,77.9617182 106.371655,77.1045661 103.904744,76.1968872 C100.969069,75.1170045 97.9336219,74.0002578 91.9370141,74.0002578 C85.9439308,74.0002578 82.9103814,75.1172623 79.9766038,76.197145 C77.2721928,77.1927303 74.7177106,78.1331486 69.4845736,78.1331486 C64.2492676,78.1331486 61.6942431,77.1927303 58.9887476,76.1968872 C56.0541567,75.1170045 53.019794,74 47.025084,74 C41.0322719,74 37.9987225,75.1170045 35.0649449,76.1968872 C32.6039986,77.1030194 30.2794252,77.9586247 25.9588744,78.1094319 C24.8364422,78.148616 23.9601859,79.0454677 24.001396,80.1124609 C24.0426061,81.1797119 24.9860998,82.0105694 26.1079898,81.9737054 C31.111218,81.7991815 33.8679549,80.7842619 36.533596,79.802855 C39.238007,78.8072697 41.7922181,77.8668514 47.0253551,77.8668514 C52.2603899,77.8668514 54.8156855,78.8072697 57.5209099,79.8031128 C60.4555009,80.8829955 63.4901347,82 69.4848447,82 C75.4779279,82 78.5114773,80.8829955 81.4452549,79.8031128 C84.1496659,78.8075275 86.7041482,77.8671092 91.9372852,77.8671092 C97.1744889,77.8671092 99.7311402,78.8075275 102.437449,79.8033706 C105.109326,80.7863242 107.872027,81.8027906 112.89342,81.9749944 C114.008532,82.0128895 114.958262,81.1797119 114.998659,80.1124609 C115.039055,79.0452099 114.161986,78.1488738 113.039825,78.1104631 Z">
                </path>
                <path
                    d="M91.9657245,83 C85.9700366,83 82.9351689,84.1170405 80.0001162,85.196958 C77.2945299,86.1925754 74.7389374,87.133024 69.5035261,87.133024 C64.2659448,87.133024 61.7098099,86.1925754 59.0031386,85.196958 C56.0672722,84.1167827 53.0315908,83 47.0342755,83 C45.9108129,83 45,83.865687 45,84.933488 C45,86.001289 45.9108129,86.866976 47.0342755,86.866976 C52.2715855,86.866976 54.8279916,87.8074246 57.5346629,88.803042 C60.4705293,89.8832173 63.5062108,91 69.5035261,91 C75.499214,91 78.5340817,89.8829595 81.4691344,88.803042 C84.1747207,87.8074246 86.7303132,86.866976 91.9657245,86.866976 C93.0891871,86.866976 94,86.001289 94,84.933488 C94,83.865687 93.0891871,83 91.9657245,83 Z">
                </path>
                <path
                    d="M17.4884985,77.5728004 C16.1155104,77.1760259 14.9646748,76.6787832 13.7463328,76.1524497 C12.7076492,75.7037916 11.5390629,76.2790097 11.1367142,77.4372433 C10.7343655,78.5957768 11.250211,79.8985647 12.2888946,80.3472228 C13.5610265,80.896649 14.8764593,81.4649692 16.4761719,81.927423 C16.6458792,81.9766074 16.8161243,82 16.9836799,82 C17.8806271,82 18.6993098,81.3276127 18.9349098,80.3145331 C19.2146174,79.1119136 18.5669866,77.8847017 17.4884985,77.5728004 Z">
                </path>
                <path
                    d="M96.6375345,38.0437657 C90.6107042,29.2500314 80.7287144,24 70.2028084,24 C52.4461584,24 38.000002,38.693522 38.000002,56.7548339 C37.999733,57.5342679 38.0268991,58.3208151 38.0806932,59.0925889 C38.1557361,60.1737835 39.0414572,61 40.0909815,61 C40.1388583,61 40.1867352,60.9983585 40.2351499,60.9948019 C41.3465375,60.9149161 42.1838439,59.9338524 42.1053044,58.8034131 C42.0582345,58.1271193 42.034565,57.4379672 42.034565,56.7548339 C42.034565,40.9565893 54.6705475,28.1037244 70.2028084,28.1037244 C79.4099502,28.1037244 88.054943,32.6968863 93.327579,40.3905489 C93.9647709,41.3199057 95.2219408,41.5480727 96.1361728,40.900505 C97.0501358,40.2523901 97.2744575,38.973396 96.6375345,38.0437657 Z">
                </path>
                <path
                    d="M27.9793017,55 L15.0206983,55 C13.904734,55 13,55.8954667 13,57 C13,58.1045333 13.904734,59 15.0206983,59 L27.9793017,59 C29.095266,59 30,58.1045333 30,57 C30,55.8954667 29.095266,55 27.9793017,55 Z">
                </path>
                <path
                    d="M70,0 C68.8954667,0 68,0.904733981 68,2.02069829 L68,14.9793017 C68,16.0955354 68.8954667,17 70,17 C71.1045333,17 72,16.095266 72,14.9793017 L72,2.02069829 C72,0.904733981 71.1045333,0 70,0 Z">
                </path>
                <path
                    d="M109.417302,16.5826953 C108.640371,15.8057682 107.380676,15.8057682 106.60401,16.5826953 L97.5826983,25.6039615 C96.8057672,26.3808885 96.8057672,27.6405766 97.5826983,28.4172384 C97.9710311,28.8055693 98.4800549,29 98.9893439,29 C99.4983677,29 100.007657,28.8058346 100.39599,28.4172384 L109.417302,19.3959722 C110.194233,18.6190452 110.194233,17.3593571 109.417302,16.5826953 Z">
                </path>
                <path
                    d="M55.8374075,18.2170098 L54.0960485,14.2426894 C53.646162,13.215838 52.4009555,12.7285732 51.3146994,13.1535883 C50.2284434,13.5788717 49.712706,14.7562493 50.1625925,15.7828325 L51.9039515,19.7571529 C52.2434242,20.5320541 53.0361896,21 53.871531,21 C54.143166,21 54.4190585,20.9506296 54.6853006,20.846254 C55.7715566,20.4209706 56.287294,19.243593 55.8374075,18.2170098 Z">
                </path>
                <path
                    d="M113.846301,38.3146588 C113.421021,37.2286883 112.243921,36.7126678 111.217078,37.1625536 L107.242791,38.9039099 C106.215949,39.3535119 105.72842,40.5990003 106.153699,41.6852547 C106.474605,42.5049836 107.224009,43 108.013661,43 C108.270439,43 108.531242,42.9477735 108.782922,42.8373599 L112.757209,41.0960036 C113.784051,40.6461177 114.27158,39.4006293 113.846301,38.3146588 Z">
                </path>
                <path
                    d="M87.6853006,13.1536986 C86.5993284,12.7284212 85.353838,13.2159474 84.9039515,14.2427844 L83.1625925,18.2170489 C82.712706,19.2436176 83.2284434,20.4207104 84.3146994,20.8462562 C84.5809415,20.9506303 84.8571179,21 85.128469,21 C85.9638104,21 86.7565758,20.5320607 87.0960485,19.7571703 L88.8374075,15.7829058 C89.287294,14.7560688 88.7715566,13.578976 87.6853006,13.1536986 Z">
                </path>
                <path
                    d="M31.7572085,38.9039363 L27.7829216,37.1625912 C26.7558104,36.7127083 25.5789793,37.2284416 25.1536995,38.314689 C24.7284196,39.4009363 25.2159486,40.6461329 26.2427915,41.0960158 L30.2170784,42.8373609 C30.4690265,42.9477738 30.7298291,43 30.9863385,43 C31.7759906,43 32.5253954,42.5049868 32.8463005,41.6852632 C33.2715804,40.5990158 32.7840514,39.3538193 31.7572085,38.9039363 Z">
                </path>
                <path
                    d="M32.1993464,13 C29.1685867,13 26.2420624,14.0194847 23.8306961,15.8941546 C22.7322577,15.5470549 21.6001686,15.371434 20.4508437,15.371434 C14.1368066,15.371434 9,20.5561155 9,26.9289992 C9,28.0727439 9.9186939,29 11.0518774,29 L43.9481226,29 C45.0813061,29 46,28.0727439 46,26.9289992 C46,19.2486236 39.8090756,13 32.1993464,13 Z M13.3953949,24.8577222 C14.2853625,21.7735878 17.1114816,19.5134356 20.4508437,19.5134356 C21.4617353,19.5134356 22.4564854,19.7282674 23.4074622,20.1521323 C24.1568078,20.4859776 25.0309076,20.3382462 25.6314237,19.7760385 C27.4463776,18.0772656 29.7792254,17.1417255 32.1996199,17.1417255 C36.8426081,17.1417255 40.7337883,20.4525655 41.6781991,24.8577222 L13.3953949,24.8577222 Z">
                </path>
                <path
                    d="M103.549156,47.371434 C102.399831,47.371434 101.267742,47.5467787 100.169304,47.8941546 C97.7579376,46.0194847 94.8311397,45 91.8006536,45 C84.1909244,45 78,51.2486236 78,58.9289992 C78,60.0727439 78.9186939,61 80.0518774,61 L112.948123,61 C114.081306,61 115,60.0727439 115,58.9289992 C115,52.5561155 109.863193,47.371434 103.549156,47.371434 Z M82.3220745,56.8579984 C83.2662117,52.4528416 87.1576655,49.1420016 91.8006536,49.1420016 C94.2210482,49.1420016 96.5536224,50.0775417 98.3688499,51.7763147 C98.9696396,52.3382462 99.8431922,52.4857015 100.592538,52.1521323 C101.543515,51.7282674 102.538265,51.5134356 103.549156,51.5134356 C106.888518,51.5134356 109.714637,53.7735878 110.604879,56.8579984 L82.3220745,56.8579984 Z">
                </path>
            </g>
        </g>
    </g>
</svg>