<svg xmlns="http://www.w3.org/2000/svg" xmlns:xlink="http://www.w3.org/1999/xlink" width="87px" height="57px"
    viewBox="0 0 87 57">
    <g stroke="none" stroke-width="1" fill="none" fill-rule="evenodd">
        <g transform="translate(-1067.000000, -1778.000000)" fill="url(#svg-gradient5f0e62c3ce684)" fill-rule="nonzero">
            <g transform="translate(373.000000, 981.000000)">
                <g transform="translate(0.000000, 797.000000)">
                    <g transform="translate(694.000000, 0.000000)">
                        <path  fill="#111"
                            d="M85.7255859,54.4524959 L84.2758125,54.4524959 L84.2758125,46.1970951 C84.2758125,45.4936913 83.7052148,44.923428 83.0013984,44.923428 C82.297582,44.923428 81.7269844,45.4936913 81.7269844,46.1970951 L81.7269844,47.0479048 C74.308875,38.527751 72.0028652,29.6480835 71.9783965,29.5512848 C71.9136563,29.2936644 71.7699023,29.0616872 71.5656563,28.8889779 C62.4962461,21.219464 55.6332715,13.9222005 51.4730742,9.15121334 C46.9623281,3.97825679 44.5676191,0.576716471 44.544,0.542921837 C44.3054297,0.202767805 43.9157988,0 43.5,0 C43.0842012,0 42.6945703,0.202597983 42.456,0.542921837 C42.4323809,0.576716471 40.0376719,3.97825679 35.5269258,9.15121334 C31.3667285,13.9222005 24.5037539,21.2192942 15.4343438,28.8889779 C15.2300977,29.0616872 15.0861738,29.2936644 15.0214336,29.5512848 C14.9969648,29.6480835 12.691125,38.527751 5.2728457,47.0479048 L5.2728457,46.1970951 C5.2728457,45.4936913 4.70224805,44.923428 3.99843164,44.923428 C3.29461523,44.923428 2.72401758,45.4936913 2.72401758,46.1970951 L2.72401758,54.4526658 L1.27441406,54.4526658 C0.570597656,54.4526658 0,55.022929 0,55.7263329 C0,56.4297368 0.570597656,57 1.27441406,57 L85.7255859,57 C86.4294023,57 87,56.4297368 87,55.7263329 C87,55.022929 86.4294023,54.4524959 85.7255859,54.4524959 Z M29.8661484,54.4526658 C32.9114883,50.6173993 39.2193281,41.924876 43.5,30.8916921 C47.7806719,41.924876 54.0885117,50.6173993 57.1338516,54.4526658 L29.8661484,54.4526658 Z M60.4311855,54.4524959 C58.5523594,52.2232388 49.8943301,41.499641 45.0692285,27.7853029 C44.8758574,27.2355882 44.7740742,26.657683 44.7740742,26.0750227 L44.7740742,19.0240015 C44.7740742,18.3265414 44.2364414,17.7184078 43.5389121,17.6975197 C42.8172539,17.6757824 42.2252461,18.2541971 42.2252461,18.9706774 L42.2252461,26.0751925 C42.2252461,26.6578528 42.1234629,27.235758 41.9300918,27.7854727 C37.1049902,41.5003203 28.4466211,52.224088 26.5681348,54.4526658 L13.6627383,54.4526658 L14.2822734,50.5316391 C14.3910234,49.8428399 13.9544941,49.1584561 13.2688594,49.029561 C12.5592656,48.8960807 11.8846758,49.3748097 11.7728672,50.0824591 L11.0824746,54.4528356 L5.27301563,54.4528356 L5.27301563,50.8035246 C8.88266602,47.1170224 11.507959,43.277001 13.3779492,39.9221618 L12.6413379,44.585142 C12.5325879,45.2737714 12.9689473,45.9579854 13.654582,46.0868805 C14.3641758,46.2203608 15.0389355,45.7418016 15.1507441,45.0341522 L17.4426504,30.5265742 C26.4721289,22.8517958 33.3121641,15.5710051 37.4800078,10.7883001 C40.3690195,7.47336918 42.3810645,4.90650539 43.4998301,3.42446633 C44.6185957,4.90650539 46.6306406,7.47336918 49.5196523,10.7883001 C53.687666,15.5710051 60.5277012,22.8517958 69.5570098,30.5265742 L73.3369219,54.4528356 L60.4311855,54.4524959 Z M81.7269844,54.4524959 L75.9176953,54.4524959 L73.6220508,39.9223316 C75.492041,43.2771708 78.117334,47.1171923 81.7269844,50.8035246 L81.7269844,54.4524959 Z"
                            style="stroke-dasharray: 632, 634; stroke-dashoffset: 0;"></path>
                        <path  fill="#111"
                            d="M43.5,10 C42.6716,10 42,10.541037 42,11.2083911 L42,13.7916089 C42,14.458963 42.6716,15 43.5,15 C44.3284,15 45,14.458963 45,13.7916089 L45,11.2083911 C45,10.5411981 44.3284,10 43.5,10 Z"
                            style="stroke-dasharray: 14, 16; stroke-dashoffset: 0;"></path>
                    </g>
                </g>
            </g>
        </g>
    </g>
</svg>