<svg xmlns="http://www.w3.org/2000/svg" xmlns:xlink="http://www.w3.org/1999/xlink" width="79px" height="57px"
    viewBox="0 0 79 57">
    <g stroke="none" stroke-width="1" fill="none" fill-rule="evenodd">
        <g transform="translate(-771.000000, -1778.000000)" fill="url(#svg-gradient5f0e62c3ccfaa)" fill-rule="nonzero">
            <g transform="translate(373.000000, 981.000000)">
                <g transform="translate(0.000000, 797.000000)">
                    <g transform="translate(398.000000, 0.000000)">
                        <path fill="#111"
                            d="M76.6047236,44.733928 L76.5251064,44.733928 L76.5251064,31.0827919 C76.5251064,29.2353164 76.211575,27.4163637 75.5929986,25.6766239 L71.1527958,13.1865544 C70.4627799,11.2452945 68.6204745,9.94083844 66.5686339,9.94083844 L64.1566643,9.94083844 L64.1566643,7.29565277 L77.1112804,7.29565277 C77.9790463,7.29565277 78.7116482,6.72953591 78.9344529,5.88702628 C79.1571034,5.04436165 78.8005232,4.1875906 78.0472456,3.75509716 C73.7681288,1.29841041 68.9012949,0 63.9728966,0 L38.8461042,0 C33.9178602,0 29.050872,1.29841041 24.7716009,3.75509716 C24.018169,4.1875906 23.6615888,5.04436165 23.8843936,5.88702628 C24.1071983,6.72969092 24.8398002,7.29565277 25.7075661,7.29565277 L38.3421704,7.29565277 L38.3421704,9.94083844 L12.4300065,9.94083844 C10.3781659,9.94083844 8.53586057,11.2451394 7.84584469,13.1865544 L3.40564188,25.6766239 C2.78706548,27.4165187 2.47353412,29.2354714 2.47353412,31.0829469 L2.47353412,44.734083 L2.3939169,44.734083 C1.07390665,44.733928 0,45.8128364 0,47.1391496 L0,49.6243592 C0,50.9506724 1.07390665,52.0295808 2.3940712,52.0295808 L7.34144802,52.0295808 C8.66161257,52.0295808 9.73551922,50.9506724 9.73551922,49.6243592 L9.73551922,49.5443712 L12.3706022,49.5443712 C12.3702936,49.5711889 12.3685964,49.5975415 12.3685964,49.6243592 C12.3685964,53.6913477 15.6620644,57 19.7100444,57 C23.7580244,57 27.0514924,53.6911927 27.0514924,49.6243592 C27.0514924,49.5975415 27.0497951,49.5710338 27.0494865,49.5443712 L51.9496168,49.5443712 C51.9493082,49.5711889 51.947611,49.5975415 51.947611,49.6243592 C51.947611,53.6913477 55.241079,57 59.289059,57 C63.3371933,57 66.630507,53.6911927 66.630507,49.6243592 C66.630507,49.5975415 66.6288097,49.5710338 66.6285011,49.5443712 L69.2635841,49.5443712 L69.2635841,49.6243592 C69.2635841,50.9506724 70.3374908,52.0295808 71.6576553,52.0295808 L76.6048779,52.0295808 C77.9250424,52.0295808 78.9989491,50.9506724 78.9989491,49.6243592 L78.9989491,47.1391496 C78.9987948,45.8128364 77.9248881,44.733928 76.6047236,44.733928 Z M64.15651,2.32802382 C68.0484958,2.35577161 71.8941925,3.26276771 75.3853149,4.97057424 L64.15651,4.97057424 L64.15651,2.32802382 Z M40.6566244,2.32538856 L61.8422103,2.32538856 L61.8422103,4.97057424 L40.6566244,4.97057424 L40.6566244,2.32538856 Z M40.6566244,7.29565277 L61.8422103,7.29565277 L61.8422103,9.94083844 L40.6566244,9.94083844 L40.6566244,7.29565277 Z M27.4333773,4.97041922 C30.8288356,3.30942739 34.5595811,2.40630669 38.3423247,2.33236426 L38.3423247,4.97041922 L27.4333773,4.97041922 Z M5.58524034,26.4583674 L8.86374155,17.2364912 L60.525286,17.2364912 C61.1643839,17.2364912 61.682513,16.7159489 61.682513,16.0738744 C61.682513,15.4317999 61.1643839,14.9112577 60.525286,14.9112577 L9.69031022,14.9112577 L10.0254432,13.968453 C10.3874238,12.9501557 11.3536311,12.266072 12.4300065,12.266072 L66.5689425,12.266072 C67.6453179,12.266072 68.6115253,12.9503107 68.9735059,13.968453 L69.3086388,14.9112577 L65.47328,14.9112577 C64.8341821,14.9112577 64.316053,15.4317999 64.316053,16.0738744 C64.316053,16.7159489 64.8341821,17.2364912 65.47328,17.2364912 L70.1352075,17.2364912 L73.4137087,26.4585225 C73.6602752,27.1522171 73.847746,27.8611033 73.9802871,28.5799105 L70.2763892,28.5799105 C70.5801999,27.807623 70.6116764,26.9544173 70.3492174,26.1379503 C70.2995337,25.9833997 70.2475357,25.8296243 70.1930689,25.6764689 L68.9937188,22.3024 C68.4789842,20.8543996 67.1048158,19.8813669 65.5743445,19.8813669 L56.8152163,19.8813669 C54.8130593,19.8813669 53.1843009,21.5178662 53.1843009,23.5291932 L53.1843009,27.2570077 C53.1843009,27.7234495 53.2728673,28.1692743 53.4324103,28.5796005 L50.3032686,28.5796005 C50.4628116,28.1692743 50.551378,27.7234495 50.551378,27.2570077 L50.551378,23.5291932 C50.551378,21.5177112 48.9224653,19.8813669 46.9204626,19.8813669 L32.0784864,19.8813669 C30.0763295,19.8813669 28.447571,21.5178662 28.447571,23.5291932 L28.447571,27.2570077 C28.447571,27.7234495 28.5361375,28.1692743 28.6956805,28.5796005 L25.5665387,28.5796005 C25.7260818,28.1692743 25.8146482,27.7234495 25.8146482,27.2570077 L25.8146482,23.5291932 C25.8146482,21.5177112 24.1857355,19.8813669 22.1837328,19.8813669 L13.424296,19.8813669 C11.8938247,19.8813669 10.5196562,20.8542446 10.0049217,22.3024 L8.80557161,25.6763139 C8.75110479,25.8294693 8.69910672,25.9832447 8.64957741,26.1374852 C8.38711833,26.9542622 8.41844061,27.8074679 8.72225126,28.5797555 L5.01866201,28.5799105 C5.15120307,27.8609483 5.33867384,27.1520621 5.58524034,26.4583674 Z M67.9566891,28.0310004 C67.7037965,28.3799404 67.3132709,28.5802206 66.8852512,28.5802206 L56.815062,28.5802206 C56.0892492,28.5800655 55.4986006,27.9866659 55.4986006,27.2573177 L55.4986006,23.5295033 C55.4986006,22.800155 56.0892492,22.2069104 56.815062,22.2069104 L65.5740359,22.2069104 C66.1288877,22.2069104 66.6272668,22.5595709 66.8138118,23.0847636 L68.0131618,26.4588325 C68.0596052,26.5892006 68.1038884,26.7203438 68.1463201,26.852417 C68.2760838,27.2560776 68.2069588,27.6856257 67.9566891,28.0310004 Z M48.2367697,23.5295033 L48.2367697,27.2573177 C48.2367697,27.9866659 47.6461211,28.5799105 46.9203083,28.5799105 L32.0783321,28.5799105 C31.3525194,28.5800655 30.7618707,27.9866659 30.7618707,27.2573177 L30.7618707,23.5295033 C30.7618707,22.800155 31.3525194,22.2069104 32.0783321,22.2069104 L46.9203083,22.2069104 C47.6462754,22.2070654 48.2367697,22.80031 48.2367697,23.5295033 Z M23.4998856,23.5295033 L23.4998856,27.2573177 C23.4998856,27.9866659 22.909237,28.5799105 22.1834242,28.5799105 L12.1133892,28.5799105 C11.6853695,28.5800655 11.294844,28.3797854 11.0419513,28.0308454 C10.7916817,27.6854707 10.7225567,27.2559225 10.8523204,26.852107 C10.8945978,26.7203438 10.9390353,26.5893556 10.9853244,26.4588325 L12.1846744,23.0847636 C12.3712194,22.5597259 12.8695985,22.2069104 13.4244503,22.2069104 L22.1834242,22.2069104 C22.9093913,22.2070654 23.4998856,22.80031 23.4998856,23.5295033 Z M7.34144802,49.7043472 L2.3940712,49.7043472 C2.35009657,49.7043472 2.31445398,49.6685386 2.31445398,49.6243592 L2.31445398,47.1391496 C2.31445398,47.0949702 2.35009657,47.0591616 2.3940712,47.0591616 L7.34144802,47.0591616 C7.38542265,47.0591616 7.42106524,47.0949702 7.42106524,47.1391496 L7.42106524,49.6243592 L7.42121953,49.6243592 C7.42106524,49.6685386 7.38542265,49.7043472 7.34144802,49.7043472 Z M19.7098901,54.6746114 C16.9379457,54.6746114 14.6827417,52.4089039 14.6827417,49.6240492 C14.6827417,46.8391945 16.9379457,44.5734869 19.7098901,44.5734869 C22.4818345,44.5734869 24.7370384,46.8391945 24.7370384,49.6240492 C24.7370384,52.4089039 22.4818345,54.6746114 19.7098901,54.6746114 Z M59.2889047,54.6746114 C56.5169603,54.6746114 54.2617563,52.4089039 54.2617563,49.6240492 C54.2617563,46.8391945 56.5169603,44.5734869 59.2889047,44.5734869 C62.0608491,44.5734869 64.3158987,46.8391945 64.3158987,49.6240492 C64.3158987,52.4089039 62.0608491,54.6746114 59.2889047,54.6746114 Z M69.2632756,47.1389946 L69.2632756,47.2189826 L66.2273291,47.2189826 L66.2273291,47.2191376 C65.2321139,44.3299574 62.4985895,42.2488734 59.2889047,42.2488734 C56.0789113,42.2488734 53.3455412,44.3301125 52.3504802,47.2191376 L26.6483145,47.2191376 C25.6530993,44.3299574 22.9195749,42.2488734 19.7098901,42.2488734 C16.5002053,42.2488734 13.7666809,44.3301125 12.7714656,47.2191376 L9.73551922,47.2191376 L9.73551922,47.1391496 C9.73551922,45.8128364 8.66161257,44.733928 7.34144802,44.733928 L4.78798809,44.733928 L4.78798809,31.0827919 C4.78798809,31.0234209 4.79107403,30.96436 4.79169122,30.9051441 L74.206795,30.9051441 C74.2075664,30.96436 74.2104981,31.0234209 74.2104981,31.0827919 L74.2104981,33.5503297 L74.1308809,33.5503297 C72.1287239,33.5503297 70.4999655,35.1868291 70.4999655,37.1981561 C70.4999655,39.2094831 72.1288782,40.8459825 74.1308809,40.8459825 L74.2104981,40.8459825 L74.2104981,44.733928 L71.6571924,44.733928 C70.3371822,44.733773 69.2632756,45.8126814 69.2632756,47.1389946 Z M74.2106524,35.8757183 L74.2106524,38.520904 L74.1310352,38.520904 C73.4050681,38.520904 72.8145737,37.9275044 72.8145737,37.1983111 C72.8145737,36.4691179 73.4052224,35.8757183 74.1310352,35.8757183 L74.2106524,35.8757183 Z M76.6843408,49.6243592 C76.6843408,49.6685386 76.6486982,49.7043472 76.6047236,49.7043472 L71.657501,49.7043472 C71.6135264,49.7043472 71.5778838,49.6685386 71.5778838,49.6243592 L71.5778838,47.1391496 C71.5778838,47.0949702 71.6135264,47.0591616 71.657501,47.0591616 L76.6047236,47.0591616 C76.6486982,47.0591616 76.6843408,47.0949702 76.6843408,47.1391496 L76.6843408,49.6243592 Z"
                            style="stroke-dasharray: 1176, 1178; stroke-dashoffset: 0;"></path>
                        <path fill="#111"
                            d="M20.0026596,49 L19.9918883,49 C19.4410904,49 19,49.4477333 19,50 C19,50.5522667 19.4518617,51 20.0026596,51 C20.5534574,51 21,50.5522667 21,50 C21,49.4477333 20.5534574,49 20.0026596,49 Z"
                            style="stroke-dasharray: 7, 9; stroke-dashoffset: 0;"></path>
                        <path fill="#111"
                            d="M59.0026596,49 L58.9920213,49 C58.4412234,49 58,49.4477333 58,50 C58,50.5522667 58.4518617,51 59.0026596,51 C59.5534574,51 60,50.5522667 60,50 C60,49.4477333 59.5534574,49 59.0026596,49 Z"
                            style="stroke-dasharray: 7, 9; stroke-dashoffset: 0;"></path>
                        <path fill="#111"
                            d="M57.79157,35 L55.20843,35 C54.5410544,35 54,35.4477333 54,36 C54,36.5522667 54.5410544,37 55.20843,37 L57.79157,37 C58.4589456,37 59,36.5522667 59,36 C59,35.4477333 58.4589456,35 57.79157,35 Z"
                            style="stroke-dasharray: 13, 15; stroke-dashoffset: 0;"></path>
                    </g>
                </g>
            </g>
        </g>
    </g>
</svg>