<svg xmlns="http://www.w3.org/2000/svg" xmlns:xlink="http://www.w3.org/1999/xlink" width="72px" height="57px"
    viewBox="0 0 72 57">
    <g stroke="none" stroke-width="1" fill="none" fill-rule="evenodd">
        <g transform="translate(-1380.000000, -1778.000000)" fill="url(#svg-gradient5f0e62c3cfe25)" fill-rule="nonzero">
            <g transform="translate(373.000000, 981.000000)">
                <g transform="translate(0.000000, 797.000000)">
                    <g transform="translate(1007.000000, 0.000000)">
                        <path fill="#111"
                            d="M66.4364423,5.60243508 L58.0153789,5.60243508 L55.925828,2.14097697 C55.1287639,0.820356066 53.6710423,0 52.1216331,0 L40.1693285,0 C38.6199192,0 37.1621976,0.820356066 36.3649929,2.1408372 L34.2755826,5.6022953 L22.4002,5.6022953 L22.4002,3.28925182 C22.4002,2.09331273 21.4214481,1.12045906 20.2182582,1.12045906 L13.4546044,1.12045906 C12.2514146,1.12045906 11.2726626,2.09331273 11.2726626,3.28925182 L11.2726626,5.6022953 L5.56369837,5.6022953 C2.495958,5.60243508 0,8.08321195 0,11.132605 L0,51.4698301 C0,54.5192231 2.495958,57 5.56369837,57 L66.4363016,57 C69.5041826,57 72,54.5190834 72,51.4698301 L72,11.132605 C72.0001406,8.08321195 69.5041826,5.60243508 66.4364423,5.60243508 Z M51.7091791,2.0966674 L52.1216331,2.0966674 C52.9343065,2.0966674 53.6990268,2.52704333 54.1171057,3.21964246 L55.555421,5.6022953 L51.7091791,5.6022953 L51.7091791,2.0966674 Z M42.6911615,2.0966674 L49.5999406,2.0966674 L49.5999406,5.60243508 L42.6911615,5.60243508 L42.6911615,2.0966674 Z M38.1738558,3.21964246 C38.5920754,2.52690355 39.356655,2.0966674 40.1693285,2.0966674 L40.5816418,2.0966674 L40.5816418,5.60243508 L36.7355405,5.60243508 L38.1738558,3.21964246 Z M13.3820418,3.28925182 C13.3820418,3.24941514 13.4145262,3.21712646 13.4546044,3.21712646 L20.2182582,3.21712646 C20.2583364,3.21712646 20.2908209,3.24941514 20.2908209,3.28925182 L20.2908209,5.6022953 L13.3820418,5.6022953 L13.3820418,3.28925182 Z M66.4364423,54.9033326 L5.56369837,54.9033326 C3.65906965,54.9033326 2.10937912,53.3629809 2.10937912,51.4698301 L2.10937912,11.132605 C2.10937912,9.23931435 3.65906965,7.69910248 5.56369837,7.69910248 L66.4363016,7.69910248 C68.341071,7.69910248 69.8906209,9.23945413 69.8906209,11.132605 L69.8906209,51.4698301 L69.8907615,51.4698301 C69.8907615,53.3631207 68.341071,54.9033326 66.4364423,54.9033326 Z"
                            style="stroke-dasharray: 540, 542; stroke-dashoffset: 0;"></path>
                        <path fill="#111"
                            d="M46,13 C36.0747914,13 28,21.0747914 28,31 C28,40.9252086 36.0747914,49 46,49 C55.9253495,49 64,40.9252086 64,31 C64,21.0747914 55.9253495,13 46,13 Z M46,46.8863647 C37.2402499,46.8863647 30.1136353,39.7597501 30.1136353,31 C30.1136353,22.2402499 37.2402499,15.1136353 46,15.1136353 C54.7597501,15.1136353 61.8863647,22.2402499 61.8863647,31 C61.8863647,39.7597501 54.7597501,46.8863647 46,46.8863647 Z"
                            style="stroke-dasharray: 213, 215; stroke-dashoffset: 0;"></path>
                        <path fill="#111"
                            d="M53.5337933,20.3157637 C48.0763946,16.7253529 40.7130232,17.3674187 36.0252558,21.8422643 C31.337201,26.3171099 30.6647077,33.3458163 34.4260723,38.5550392 C34.6351488,38.8445928 34.9718266,39.0001371 35.3143958,38.9999999 C35.5251967,38.9999999 35.7382966,38.9410193 35.9251003,38.8182573 C36.4152445,38.4957842 36.5386787,37.8552273 36.2008513,37.3873601 C33.0296427,32.9957732 33.5968075,27.0700044 37.5492868,23.2971652 C41.5016223,19.5244632 47.7095408,18.9829389 52.3105164,22.009879 C52.8006606,22.3324892 53.4718607,22.2143908 53.8095443,21.7466608 C54.1473717,21.2789308 54.0237938,20.6382367 53.5337933,20.3157637 Z"
                            style="stroke-dasharray: 76, 78; stroke-dashoffset: 0;"></path>
                        <path fill="#111"
                            d="M57.574042,23.4451211 C57.2362158,22.9771199 56.5651617,22.8594338 56.0750192,23.1817675 C55.5850204,23.5042384 55.461443,24.144791 55.7992691,24.612655 C58.970323,29.0043491 58.4031602,34.9300775 54.4506947,38.702891 C50.4982292,42.4757044 44.2901886,43.017225 39.6895165,39.9901684 C39.199374,39.6675604 38.5283199,39.7855208 38.1904937,40.2533848 C37.8526676,40.7212487 37.9761013,41.3618013 38.4662438,41.6842722 C40.8294463,43.2390181 43.5494426,44 46.2555005,44 C49.7982925,44 53.3169438,42.6947541 55.974864,40.157782 C60.6627588,35.6829668 61.3352498,28.6543084 57.574042,23.4451211 Z"
                            style="stroke-dasharray: 76, 78; stroke-dashoffset: 0;"></path>
                        <path fill="#111"
                            d="M46.5,26 C43.467382,26 41,28.4672118 41,31.5000695 C41,34.5327882 43.467382,37 46.5,37 C49.532618,37 52,34.5326492 52,31.5000695 C52,28.4674898 49.532618,26 46.5,26 Z M46.5,34.9149364 C44.6171772,34.9149364 43.085229,33.3830075 43.085229,31.5002085 C43.085229,29.6174095 44.6171772,28.0853417 46.5,28.0853417 C48.3828228,28.0853417 49.914771,29.6172705 49.914771,31.5002085 C49.914771,33.3831465 48.3828228,34.9149364 46.5,34.9149364 Z"
                            style="stroke-dasharray: 57, 59; stroke-dashoffset: 0;"></path>
                        <path fill="#111"
                            d="M16.4999256,12 C14.5699989,12 13,13.4775041 13,15.2934192 L13,46.7065808 C13,48.5226359 14.5701477,50 16.4999256,50 C18.4298523,50 20,48.5224959 20,46.7065808 L20,15.2932792 C19.9998513,13.4775041 18.4298523,12 16.4999256,12 Z M17.7688941,46.7065808 C17.7688941,47.3650687 17.1995538,47.9006762 16.4997769,47.9006762 C15.8,47.9006762 15.2308085,47.3649288 15.2308085,46.7065808 L15.2308085,15.2932792 C15.2308085,14.6347913 15.8001487,14.0991838 16.4997769,14.0991838 C17.1995538,14.0991838 17.7688941,14.6349313 17.7688941,15.2932792 L17.7688941,46.7065808 Z"
                            style="stroke-dasharray: 155, 157; stroke-dashoffset: 0;"></path>
                    </g>
                </g>
            </g>
        </g>
    </g>
</svg>