<svg xmlns="http://www.w3.org/2000/svg" xmlns:xlink="http://www.w3.org/1999/xlink" class="billey-shape-fill" fill="#111" width="87px" height="57px"
    viewBox="0 0 87 57">
    <g stroke="none" stroke-width="1" fill="none"  fill-rule="evenodd">
        <g transform="translate(-474.000000, -1778.000000)" fill="url(#svg-gradient5f0e62c3cb6d1)" fill-rule="nonzero">
            <g transform="translate(373.000000, 981.000000)">
                <g id="Group-6" transform="translate(0.000000, 797.000000)">
                    <g transform="translate(101.000000, 0.000000)">
                        <path class="billey-shape-fill" fill="#111"
                            d="M85.7255859,41 C81.9672539,41 80.0648086,41.6979892 78.2248945,42.3729376 C76.5287344,42.9951985 74.9263711,43.58314 71.6439902,43.58314 C68.3614395,43.58314 66.7592461,42.9953596 65.062916,42.3729376 C63.2231719,41.6979892 61.3207266,41 57.5622246,41 C53.8061016,41 51.9048457,41.6981503 50.0661211,42.3730987 C48.3711504,42.9953596 46.7701465,43.58314 43.4903145,43.58314 C40.209123,43.58314 38.6076094,42.9953596 36.9121289,42.3730987 C35.0728945,41.6979892 33.1711289,41 29.4139863,41 C25.6580332,41 23.7567773,41.6981503 21.9180527,42.3730987 C20.223082,42.9953596 18.622248,43.58314 15.342416,43.58314 C12.0636035,43.58314 10.4631094,42.9953596 8.76864844,42.3730987 C6.93043359,41.6979892 5.0296875,41 1.27441406,41 C0.570597656,41 0,41.5410544 0,42.20843 C0,42.8758056 0.570597656,43.41686 1.27441406,43.41686 C4.55322656,43.41686 6.15355078,44.0046404 7.84818164,44.6269013 C9.68639648,45.3020108 11.5871426,46 15.342416,46 C19.0983691,46 20.999625,45.3018497 22.8383496,44.6269013 C24.5333203,44.0046404 26.1341543,43.41686 29.4139863,43.41686 C32.6950078,43.41686 34.2965215,44.0046404 35.992002,44.6269013 C37.8312363,45.3020108 39.7331719,46 43.4903145,46 C47.2464375,46 49.1476934,45.3018497 50.986418,44.6269013 C52.6813887,44.0046404 54.2823926,43.41686 57.5622246,43.41686 C60.8446055,43.41686 62.4469688,44.0046404 64.1431289,44.6270624 C65.983043,45.3020108 67.8854883,46 71.6439902,46 C75.4024922,46 77.3047676,45.3020108 79.1446816,44.6270624 C80.8408418,44.0048015 82.4432051,43.41686 85.7255859,43.41686 C86.4294023,43.41686 87,42.8758056 87,42.20843 C87,41.5410544 86.4294023,41 85.7255859,41 Z"
                            style="stroke-dasharray: 181, 183; stroke-dashoffset: 0;"></path>
                        <path  fill="#111"
                            d="M79.9188179,48.70276 C79.6787935,48.1373733 78.9791788,47.8557771 78.3568873,48.0737399 L78.136677,48.1509777 C77.4093547,48.4065354 76.7223049,48.6479036 75.9047721,48.8407056 C75.2589615,48.9931332 74.8713785,49.5920189 75.0390734,50.1784705 C75.1803495,50.6724707 75.670547,51 76.2076217,51 C76.3083031,51 76.4104343,50.9884436 76.5122433,50.964453 C77.4646086,50.7397612 78.2494401,50.4640163 79.0086583,50.1971948 L79.225969,50.1209809 C79.8485826,49.9030182 80.1588424,49.2680004 79.9188179,48.70276 Z"
                            style="stroke-dasharray: 13, 15; stroke-dashoffset: 0;"></path>
                        <path  fill="#111"
                            d="M70.7721979,49.5690394 C68.0548804,49.4760739 66.5954325,48.9403538 65.0502246,48.3730545 C63.2113949,47.6981278 61.3100708,47.0001611 57.5539539,47.0001611 C53.8000446,47.0001611 51.8999093,47.6982889 50.0622683,48.3732156 C48.3682966,48.9954564 46.7682363,49.5832179 43.4903373,49.5832179 C40.2110797,49.5832179 38.6106798,48.9954564 36.9160287,48.3730545 C35.0778784,47.6981278 33.1772336,47 29.4223054,47 C25.6685659,47 23.7684306,47.6981278 21.9307897,48.3730545 C20.3893178,48.9393871 18.9332663,49.4741404 16.2269873,49.5683949 C15.5239253,49.592885 14.9750615,50.1534173 15.0008744,50.8202881 C15.0266873,51.4873199 15.6176669,52.0066059 16.3203892,51.9835659 C19.4542794,51.8744884 21.1810267,51.2401637 22.850714,50.6267844 C24.5446857,50.0045436 26.1445762,49.4167821 29.4224752,49.4167821 C32.7015629,49.4167821 34.3021327,50.0045436 35.9966139,50.6269455 C37.8347643,51.3018722 39.7355789,52 43.4905071,52 C47.2444164,52 49.1445517,51.3018722 50.9821926,50.6269455 C52.6761644,50.0047047 54.2762247,49.4169433 57.5541237,49.4169433 C60.83457,49.4169433 62.4359889,50.0047047 64.1311494,50.6271066 C65.8047425,51.2414526 67.5352259,51.8767441 70.6804941,51.9843715 C71.3789709,52.0080559 71.9738564,51.4873199 71.9991599,50.8202881 C72.0244633,50.1532562 71.47509,49.5930461 70.7721979,49.5690394 Z"
                            style="stroke-dasharray: 120, 122; stroke-dashoffset: 0;"></path>
                        <path  fill="#111"
                            d="M57.7130094,52 C53.9198191,52 51.9998007,52.6981503 50.1429307,53.3730987 C48.4312332,53.9953596 46.8144298,54.58314 43.5022308,54.58314 C40.188659,54.58314 38.5715124,53.9953596 36.8591285,53.3730987 C35.0017437,52.6979892 33.0812105,52 29.2869906,52 C28.5762286,52 28,52.5410544 28,53.20843 C28,53.8758056 28.5762286,54.41686 29.2869906,54.41686 C32.6003908,54.41686 34.217709,55.0046404 35.9300929,55.6269013 C37.7874777,56.3020108 39.7080109,57 43.5022308,57 C47.2954211,57 49.2154395,56.3018497 51.0723095,55.6269013 C52.784007,55.0046404 54.4008104,54.41686 57.7130094,54.41686 C58.4237714,54.41686 59,53.8758056 59,53.20843 C59,52.5410544 58.4237714,52 57.7130094,52 Z"
                            style="stroke-dasharray: 67, 69; stroke-dashoffset: 0;"></path>
                        <path  fill="#111"
                            d="M11.0553115,48.7864002 C10.197194,48.588013 9.47792175,48.3393916 8.71645801,48.0762248 C8.06728075,47.8518958 7.33691432,48.1395048 7.08544638,48.7186216 C6.83397844,49.2978884 7.15638186,49.9492824 7.80555911,50.1736114 C8.60064156,50.4483245 9.42278707,50.7324846 10.4226074,50.9637115 C10.5286745,50.9883037 10.6350777,51 10.7398,51 C11.3003919,51 11.8120687,50.6638063 11.9593186,50.1572666 C12.1341359,49.5559568 11.7293666,48.9423509 11.0553115,48.7864002 Z"
                            style="stroke-dasharray: 13, 15; stroke-dashoffset: 0;"></path>
                        <path  fill="#111"
                            d="M60.7665476,22.7299084 C56.8848603,17.263533 50.5201889,14 43.7407918,14 C32.3043054,14 23.0000013,23.133811 23.0000013,34.361113 C22.999828,34.845626 23.0173248,35.3345608 23.0519719,35.814312 C23.1003046,36.486406 23.670769,37 24.3467339,37 C24.3775698,37 24.4084057,36.9989796 24.4395881,36.9967688 C25.1553971,36.94711 25.6946791,36.3372596 25.6440943,35.6345541 C25.6137781,35.2141553 25.5985334,34.7857634 25.5985334,34.361113 C25.5985334,24.5405825 33.7369628,16.5509638 43.7407918,16.5509638 C49.6708154,16.5509638 55.2387768,19.4061726 58.6347119,24.1887196 C59.0451067,24.7664278 59.8548093,24.9082614 60.4436367,24.5057193 C61.0322909,24.1028371 61.1767692,23.3077867 60.7665476,22.7299084 Z"
                            style="stroke-dasharray: 109, 111; stroke-dashoffset: 0;"></path>
                        <path  fill="#111"
                            d="M17.8113539,34 L10.1886461,34 C9.53219646,34 9,34.6716 9,35.5 C9,36.3284 9.53219646,37 10.1886461,37 L17.8113539,37 C18.4678035,37 19,36.3284 19,35.5 C19,34.6716 18.4678035,34 17.8113539,34 Z"
                            style="stroke-dasharray: 24, 26; stroke-dashoffset: 0;"></path>
                        <path  fill="#111"
                            d="M43.5,0 C42.6716,0 42,0.532196459 42,1.18864605 L42,8.81135395 C42,9.46796203 42.6716,10 43.5,10 C44.3284,10 45,9.46780354 45,8.81135395 L45,1.18864605 C45,0.532196459 44.3284,0 43.5,0 Z"
                            style="stroke-dasharray: 24, 26; stroke-dashoffset: 0;"></path>
                        <path  fill="#111"
                            d="M67.5965935,10.4034044 C67.0587182,9.86553186 66.186622,9.86553186 65.6489303,10.4034044 L59.4034065,16.6488964 C58.8655312,17.186769 58.8655312,18.0588607 59.4034065,18.5965497 C59.6722523,18.8653941 60.0246534,19 60.3772381,19 C60.7296392,19 61.0822239,18.8655778 61.3510697,18.5965497 L67.5965935,12.3510577 C68.1344688,11.8131851 68.1344688,10.9410934 67.5965935,10.4034044 Z"
                            style="stroke-dasharray: 27, 29; stroke-dashoffset: 0;"></path>
                        <path  fill="#111"
                            d="M34.9187037,11.2606311 L34.0480243,8.7766809 C33.823081,8.13489873 33.2004777,7.83035825 32.6573497,8.09599268 C32.1142217,8.36179481 31.856353,9.09765584 32.0812963,9.73927031 L32.9519757,12.2232205 C33.1217121,12.7075338 33.5180948,13 33.9357655,13 C34.071583,13 34.2095293,12.9691435 34.3426503,12.9039088 C34.8857783,12.6381066 35.143647,11.9022456 34.9187037,11.2606311 Z"
                            style="stroke-dasharray: 13, 15; stroke-dashoffset: 0;"></path>
                        <path  fill="#111"
                            d="M71.9039378,23.6573294 C71.6381379,23.1143441 70.9024508,22.8563339 70.260674,23.0812768 L67.7767447,23.951955 C67.1349679,24.176756 66.8302623,24.7995002 67.0960622,25.3426274 C67.2966279,25.7524918 67.7650059,26 68.2585384,26 C68.4190245,26 68.5820261,25.9738868 68.739326,25.9186799 L71.2232553,25.0480018 C71.8650321,24.8230589 72.1697377,24.2003147 71.9039378,23.6573294 Z"
                            style="stroke-dasharray: 13, 15; stroke-dashoffset: 0;"></path>
                        <path  fill="#111"
                            d="M54.3426503,8.09606162 C53.7996642,7.83026322 53.176919,8.13496712 52.9519757,8.77674027 L52.0812963,11.2606556 C51.856353,11.902261 52.1142217,12.637944 52.6573497,12.9039101 C52.7904707,12.9691439 52.9285589,13 53.0642345,13 C53.4819052,13 53.8782879,12.7075379 54.0480243,12.2232315 L54.9187037,9.73931615 C55.143647,9.097543 54.8857783,8.36186001 54.3426503,8.09606162 Z"
                            style="stroke-dasharray: 13, 15; stroke-dashoffset: 0;"></path>
                        <path  fill="#111"
                            d="M19.2232553,23.9519681 L16.739326,23.0812956 C16.0973815,22.8563541 15.3618621,23.1142208 15.0960622,23.6573445 C14.8302623,24.2004682 15.1349679,24.8230664 15.7767447,25.0480079 L18.260674,25.9186805 C18.4181416,25.9738869 18.5811432,26 18.7414616,26 C19.2349941,26 19.7033721,25.7524934 19.9039378,25.3426316 C20.1697377,24.7995079 19.8650321,24.1769096 19.2232553,23.9519681 Z"
                            style="stroke-dasharray: 13, 15; stroke-dashoffset: 0;"></path>
                        <path  fill="#111"
                            d="M19.4212153,9 C17.5372296,9 15.7180388,9.57346012 14.2190814,10.627962 C13.5362683,10.4327184 12.8325372,10.3339316 12.118092,10.3339316 C8.19315006,10.3339316 5,13.250315 5,16.835062 C5,17.4784184 5.57107999,18 6.27549134,18 L26.7245087,18 C27.42892,18 28,17.4784184 28,16.835062 C28,12.5148508 24.1515875,9 19.4212153,9 Z M7.73227252,15.6699688 C8.28549563,13.9351432 10.0422724,12.6638075 12.118092,12.6638075 C12.7464841,12.6638075 13.3648423,12.7846504 13.95599,13.0230744 C14.4217994,13.2108624 14.9651588,13.1277635 15.3384526,12.8115217 C16.4666672,11.8559619 17.9168158,11.3297206 19.4213854,11.3297206 C22.3075672,11.3297206 24.726409,13.1920681 25.3134751,15.6699688 L7.73227252,15.6699688 Z"
                            style="stroke-dasharray: 95, 97; stroke-dashoffset: 0;"></path>
                        <path  fill="#111"
                            d="M64.881908,29.3339316 C64.1674628,29.3339316 63.4637317,29.432563 62.7809186,29.627962 C61.2819612,28.5734601 59.4626004,28 57.5787847,28 C52.8484125,28 49,31.5148508 49,35.835062 C49,36.4784184 49.57108,37 50.2754913,37 L70.7245087,37 C71.42892,37 72,36.4784184 72,35.835062 C72,32.250315 68.8068499,29.3339316 64.881908,29.3339316 Z M51.686695,34.6701241 C52.273591,32.1922234 54.6926029,30.3298759 57.5787847,30.3298759 C59.0833543,30.3298759 60.5333328,30.8561172 61.6617175,31.811677 C62.0351814,32.1277635 62.5782006,32.2107071 63.04401,32.0230744 C63.6351577,31.7846504 64.2535159,31.6638075 64.881908,31.6638075 C66.9577276,31.6638075 68.7145044,32.9351432 69.2678975,34.6701241 L51.686695,34.6701241 Z"
                            style="stroke-dasharray: 95, 97; stroke-dashoffset: 0;"></path>
                    </g>
                </g>
            </g>
        </g>
    </g>
</svg>