<svg xmlns="http://www.w3.org/2000/svg" xmlns:xlink="http://www.w3.org/1999/xlink" width="38px" height="30px" viewBox="0 0 38 30"><g stroke="none" stroke-width="1" fill="none" fill-rule="evenodd"><g transform="translate(-941.000000, -5821.000000)" fill="#F7B500"><g transform="translate(575.000000, 5821.000000)"><path d="M369.376307,27.8488372 C371.903613,26.8023203 374.075485,25.1647398 375.891986,22.9360465 C377.708488,20.7073532 378.616725,18.4496238 378.616725,16.1627907 C378.616725,15.1937936 378.498259,14.3604686 378.261324,13.6627907 C376.879203,14.7093076 375.378638,15.2325581 373.759582,15.2325581 C371.548189,15.2325581 369.702098,14.5445805 368.221254,13.1686047 C366.740411,11.7926288 366,9.94187209 366,7.61627907 C366,5.44572558 366.750283,3.6337282 368.250871,2.18023256 C369.751459,0.726736919 371.587678,0 373.759582,0 C376.879226,0 379.268284,1.25967733 380.926829,3.77906977 C382.30895,5.87210349 383,8.4883564 383,11.627907 C383,15.620175 381.963425,19.1957206 379.890244,22.3546512 C377.817063,25.5135817 374.687594,28.0620058 370.501742,30 L369.376307,27.8488372 Z M390.376307,27.8488372 C392.903613,26.8023203 395.075485,25.1647398 396.891986,22.9360465 C398.708488,20.7073532 399.616725,18.4496238 399.616725,16.1627907 C399.616725,15.1937936 399.498259,14.3604686 399.261324,13.6627907 C397.918692,14.7093076 396.418127,15.2325581 394.759582,15.2325581 C392.587678,15.2325581 390.751459,14.5445805 389.250871,13.1686047 C387.750283,11.7926288 387,9.94187209 387,7.61627907 C387,6.18216337 387.355397,4.88372674 388.066202,3.72093023 C388.777007,2.55813372 389.724733,1.64729012 390.909408,0.988372093 C392.094083,0.32945407 393.377461,0 394.759582,0 C397.879226,0 400.268284,1.25967733 401.926829,3.77906977 C403.30895,5.87210349 404,8.4883564 404,11.627907 C404,15.620175 402.963425,19.1957206 400.890244,22.3546512 C398.817063,25.5135817 395.687594,28.0620058 391.501742,30 L390.376307,27.8488372 Z"></path></g></g></g></svg>