<!--?xml version="1.0" encoding="utf-8"?-->
<!-- Generator: Adobe Illustrator 24.2.3, SVG Export Plug-In . SVG Version: 6.00 Build 0)  -->
<svg version="1.1" id="Layer_1" xmlns="http://www.w3.org/2000/svg" xmlns:xlink="http://www.w3.org/1999/xlink" x="0px" y="0px" viewBox="0 0 64.4 76.5" style="" xml:space="preserve">
<style type="text/css">
	.st0{fill:none;stroke:#0D0C0C;stroke-miterlimit:10;}
</style>
<path class="st0 MCzUfsKD_0" d="M7.2,54l2,20.7c0.1,0.7,0.6,1.3,1.4,1.3h27.3c0.7,0,1.3-0.6,1.4-1.3l2-20.7"></path>
<path class="st0 MCzUfsKD_1" d="M44.8,44H4.5c-0.7,0-1.3,0.5-1.3,1.2c0,0,0,0,0,0.1L4,51.8C4.1,52.5,4.6,53,5.3,53H44c0.7,0,1.3-0.5,1.3-1.2
	l0.8-6.5C46.3,44.6,45.6,44,44.8,44z"></path>
<path class="st0 MCzUfsKD_2" d="M37.5,44c4.8-4.5,7.6-10.7,7.7-17.2h0.1c6.1,0,12.9-4.5,15.2-10.2S59.5,6.4,53.4,6.4c-4.7,0.2-9.1,2.3-12.3,5.8
	C37.5,6.6,31.3,3.1,24.7,3C13.4,3,4.2,13.3,4.2,26c-0.1,6.6,2.6,13,7.4,17.7"></path>
<path class="st0 MCzUfsKD_3" d="M24.2,0v44"></path>
<path class="st0 MCzUfsKD_4" d="M13.4,2l2.2,3"></path>
<path class="st0 MCzUfsKD_5" d="M0.2,19l3,1.1"></path>
<path class="st0 MCzUfsKD_6" d="M4.2,9l3,2.2"></path>
<path class="st0 MCzUfsKD_7" d="M0.2,29.6l3-0.6"></path>
<path class="st0 MCzUfsKD_8" d="M2.2,38.9l3-1.9"></path>
<path class="st0 MCzUfsKD_9" d="M37.4,2l-2.2,3"></path>
<path class="st0 MCzUfsKD_10" d="M64.2,8l-18,12"></path>
<path class="st0 MCzUfsKD_11" d="M47.2,36.7l-3-0.7"></path>
<path class="st0 MCzUfsKD_12" d="M57.1,3l-1,3"></path>
<path class="st0 MCzUfsKD_13" d="M45.2,4l2.2,3"></path>
<path class="st0 MCzUfsKD_14" d="M64.2,19.2l-3-1.2"></path>
<path class="st0 MCzUfsKD_15" d="M57.2,23l2.2,3"></path>
<path class="st0 MCzUfsKD_16" d="M51.2,27l0.8,3"></path>
<path class="st0 MCzUfsKD_17" d="M41.2,12c1.2,0.9,3.1,6.6,4,14.8"></path>
<path class="st0 MCzUfsKD_18" d="M30.9,44c3.2-3.7,5.3-10.6,5.3-18.6C36.2,13.6,31.5,4,25.7,4s-10.5,9.6-10.5,21.4c0,7.4,1.9,14,4.7,17.8"></path>
<style data-made-with="vivus-instant">.MCzUfsKD_0{stroke-dasharray:74 76;stroke-dashoffset:75;animation:MCzUfsKD_draw 3333ms linear 0ms forwards;}.MCzUfsKD_1{stroke-dasharray:101 103;stroke-dashoffset:102;animation:MCzUfsKD_draw 3333ms linear 92ms forwards;}.MCzUfsKD_2{stroke-dasharray:142 144;stroke-dashoffset:143;animation:MCzUfsKD_draw 3333ms linear 185ms forwards;}.MCzUfsKD_3{stroke-dasharray:44 46;stroke-dashoffset:45;animation:MCzUfsKD_draw 3333ms linear 277ms forwards;}.MCzUfsKD_4{stroke-dasharray:4 6;stroke-dashoffset:5;animation:MCzUfsKD_draw 3333ms linear 370ms forwards;}.MCzUfsKD_5{stroke-dasharray:4 6;stroke-dashoffset:5;animation:MCzUfsKD_draw 3333ms linear 462ms forwards;}.MCzUfsKD_6{stroke-dasharray:4 6;stroke-dashoffset:5;animation:MCzUfsKD_draw 3333ms linear 555ms forwards;}.MCzUfsKD_7{stroke-dasharray:4 6;stroke-dashoffset:5;animation:MCzUfsKD_draw 3333ms linear 648ms forwards;}.MCzUfsKD_8{stroke-dasharray:4 6;stroke-dashoffset:5;animation:MCzUfsKD_draw 3333ms linear 740ms forwards;}.MCzUfsKD_9{stroke-dasharray:4 6;stroke-dashoffset:5;animation:MCzUfsKD_draw 3333ms linear 833ms forwards;}.MCzUfsKD_10{stroke-dasharray:22 24;stroke-dashoffset:23;animation:MCzUfsKD_draw 3333ms linear 925ms forwards;}.MCzUfsKD_11{stroke-dasharray:4 6;stroke-dashoffset:5;animation:MCzUfsKD_draw 3333ms linear 1018ms forwards;}.MCzUfsKD_12{stroke-dasharray:4 6;stroke-dashoffset:5;animation:MCzUfsKD_draw 3333ms linear 1111ms forwards;}.MCzUfsKD_13{stroke-dasharray:4 6;stroke-dashoffset:5;animation:MCzUfsKD_draw 3333ms linear 1203ms forwards;}.MCzUfsKD_14{stroke-dasharray:4 6;stroke-dashoffset:5;animation:MCzUfsKD_draw 3333ms linear 1296ms forwards;}.MCzUfsKD_15{stroke-dasharray:4 6;stroke-dashoffset:5;animation:MCzUfsKD_draw 3333ms linear 1388ms forwards;}.MCzUfsKD_16{stroke-dasharray:4 6;stroke-dashoffset:5;animation:MCzUfsKD_draw 3333ms linear 1481ms forwards;}.MCzUfsKD_17{stroke-dasharray:16 18;stroke-dashoffset:17;animation:MCzUfsKD_draw 3333ms linear 1574ms forwards;}.MCzUfsKD_18{stroke-dasharray:90 92;stroke-dashoffset:91;animation:MCzUfsKD_draw 3333ms linear 1666ms forwards;}@keyframes MCzUfsKD_draw{100%{stroke-dashoffset:0;}}@keyframes MCzUfsKD_fade{0%{stroke-opacity:1;}95.65217391304348%{stroke-opacity:1;}100%{stroke-opacity:0;}}</style></svg>
